/* XPM */
static char *coin5[] = {
/* columns rows colors chars-per-pixel */
"32 32 6 1 ",
"  c #322125",
". c #2E2533",
"X c #9294A7",
"o c #C4B59F",
"O c #E5E6C7",
"+ c None",
/* pixels */
"+++++++++++++.....++++++++++++++",
"++++++++++++.ooooo..++++++++++++",
"+++++++++++.oooooooo.+++++++++++",
"++++++++++.oooooooooo.++++++++++",
"+++++++++.oooooooOoooo.+++++++++",
"++++++++.oooooooOOOooXX.++++++++",
"++++++++.oooXooOOOOOXXX.++++++++",
"+++++++.oooXooOOOOOOoXXX.+++++++",
"+++++++.oooXoOOOOOOooXXX.+++++++",
"+++++++.oooXOOOOOOooooXX.+++++++",
"+++++++.ooo.OOOOOooXooXX.+++++++",
"++++++++.oO.XOOOooooooX.++++++++",
"++++++++.OOOoXOoooXoooX.++++++++",
"+++++++++.OOOOoXXXoooo.+++++++++",
"++++++++++.OOoooooooo.++++++++++",
"+++++++++++.oooooooo.+++++++++++",
"++++++++++++...ooo..++++++++++++",
"+++++++++++++++...++++++++++++++",
"++++++++++++++++++++++++++++++++",
"++++++++++++++++++++++++++++++++",
"++++++++++++++++++++++++++++++++",
"++++++++++++++++++++++++++++++++",
"++++++++++++++++++++++++++++++++",
"++++++++++++++++++++++++++++++++",
"++++++++++++++++++++++++++++++++",
"++++++++++++++++++++++++++++++++",
"++++++++++++++    ++++++++++++++",
"++++++++++++        ++++++++++++",
"+++++++++++          +++++++++++",
"++++++++++++        ++++++++++++",
"++++++++++++++    ++++++++++++++",
"++++++++++++++++++++++++++++++++"
};
