/* XPM */
static char *test[] = {
/* columns rows colors chars-per-pixel */
"64 64 5 1 ",
"  c red",
". c #7B9E47",
"X c #E8BB5F",
"o c #A758D1",
"O c #299A93",
/* pixels */
"                                                                ",
"                                                                ",
"                                                                ",
"                                                                ",
"                                                                ",
"                                                                ",
"                                                                ",
"                                                                ",
"                                                                ",
"                                                                ",
"                                                                ",
"                                                                ",
"                                                                ",
"                                                                ",
"                                                                ",
"                                                                ",
"                                                                ",
"OOOOOOOOOOOOOOOO............................XXXXXXXXXXXXXXXXXXXX",
"OOOOOOOOOOOOOOOO............................XXXXXXXXXXXXXXXXXXXX",
"OOOOOOOOOOOOOOOO............................XXXXXXXXXXXXXXXXXXXX",
"OOOOOOOOOOOOOOOO............................XXXXXXXXXXXXXXXXXXXX",
"OOOOOOOOOOOOOOOO............................XXXXXXXXXXXXXXXXXXXX",
"OOOOOOOOOOOOOOOO............................XXXXXXXXXXXXXXXXXXXX",
"OOOOOOOOOOOOOOOO............................XXXXXXXXXXXXXXXXXXXX",
"OOOOOOOOOOOOOOOO............................XXXXXXXXXXXXXXXXXXXX",
"OOOOOOOOOOOOOOOO............................XXXXXXXXXXXXXXXXXXXX",
"OOOOOOOOOOOOOOOO............................XXXXXXXXXXXXXXXXXXXX",
"OOOOOOOOOOOOOOOO............................XXXXXXXXXXXXXXXXXXXX",
"OOOOOOOOOOOOOOOO............................XXXXXXXXXXXXXXXXXXXX",
"OOOOOOOOOOOOOOOO............................XXXXXXXXXXXXXXXXXXXX",
"OOOOOOOOOOOOOOOO............................XXXXXXXXXXXXXXXXXXXX",
"OOOOOOOOOOOOOOOO............................XXXXXXXXXXXXXXXXXXXX",
"OOOOOOOOOOOOOOOO............................XXXXXXXXXXXXXXXXXXXX",
"OOOOOOOOOOOOOOOO............................XXXXXXXXXXXXXXXXXXXX",
"OOOOOOOOOOOOOOOO............................XXXXXXXXXXXXXXXXXXXX",
"OOOOOOOOOOOOOOOO............................XXXXXXXXXXXXXXXXXXXX",
"OOOOOOOOOOOOOOOO............................XXXXXXXXXXXXXXXXXXXX",
"OOOOOOOOOOOOOOOO............................XXXXXXXXXXXXXXXXXXXX",
"OOOOOOOOOOOOOOOO............................XXXXXXXXXXXXXXXXXXXX",
"OOOOOOOOOOOOOOOO............................XXXXXXXXXXXXXXXXXXXX",
"OOOOOOOOOOOOOOOO............................XXXXXXXXXXXXXXXXXXXX",
"OOOOOOOOOOOOOOOOoooooooooooooooooooooooooXXXXXXXXXXXXXXXXXXXXXXX",
"OOOOOOOOOOOOOOOOoooooooooooooooooooooooooXXXXXXXXXXXXXXXXXXXXXXX",
"OOOOOOOOOOOOOOOOoooooooooooooooooooooooooXXXXXXXXXXXXXXXXXXXXXXX",
"OOOOOOOOOOOOOOOOoooooooooooooooooooooooooXXXXXXXXXXXXXXXXXXXXXXX",
"OOOOOOOOOOOOOOOOoooooooooooooooooooooooooXXXXXXXXXXXXXXXXXXXXXXX",
"OOOOOOOOOOOOOOOOoooooooooooooooooooooooooXXXXXXXXXXXXXXXXXXXXXXX",
"OOOOOOOOOOOOOOOOoooooooooooooooooooooooooXXXXXXXXXXXXXXXXXXXXXXX",
"OOOOOOOOOOOOOOOOoooooooooooooooooooooooooXXXXXXXXXXXXXXXXXXXXXXX",
"OOOOOOOOOOOOOOOOoooooooooooooooooooooooooXXXXXXXXXXXXXXXXXXXXXXX",
"OOOOOOOOOOOOOOOOoooooooooooooooooooooooooXXXXXXXXXXXXXXXXXXXXXXX",
"OOOOOOOOOOOOOOOOoooooooooooooooooooooooooXXXXXXXXXXXXXXXXXXXXXXX",
"OOOOOOOOOOOOOOOOoooooooooooooooooooooooooXXXXXXXXXXXXXXXXXXXXXXX",
"OOOOOOOOOOOOOOOOoooooooooooooooooooooooooXXXXXXXXXXXXXXXXXXXXXXX",
"OOOOOOOOOOOOOOOOoooooooooooooooooooooooooXXXXXXXXXXXXXXXXXXXXXXX",
"OOOOOOOOOOOOOOOOoooooooooooooooooooooooooXXXXXXXXXXXXXXXXXXXXXXX",
"OOOOOOOOOOOOOOOOoooooooooooooooooooooooooXXXXXXXXXXXXXXXXXXXXXXX",
"OOOOOOOOOOOOOOOOoooooooooooooooooooooooooXXXXXXXXXXXXXXXXXXXXXXX",
"OOOOOOOOOOOOOOOOoooooooooooooooooooooooooXXXXXXXXXXXXXXXXXXXXXXX",
"OOOOOOOOOOOOOOOOoooooooooooooooooooooooooXXXXXXXXXXXXXXXXXXXXXXX",
"OOOOOOOOOOOOOOOOoooooooooooooooooooooooooXXXXXXXXXXXXXXXXXXXXXXX",
"OOOOOOOOOOOOOOOOoooooooooooooooooooooooooXXXXXXXXXXXXXXXXXXXXXXX",
"OOOOOOOOOOOOOOOOoooooooooooooooooooooooooXXXXXXXXXXXXXXXXXXXXXXX",
"OOOOOOOOOOOOOOOOoooooooooooooooooooooooooXXXXXXXXXXXXXXXXXXXXXXX"
};
